<svg width="80" height="78" fill="none" xmlns="http://www.w3.org/2000/svg"><g clip-path="url(#clip0)" filter="url(#filter0_d)" fill="#FED468"><path d="M69.884 37.772a23.717 23.717 0 00-6.816-14.385 23.532 23.532 0 00-11.576-6.356v-2.977a3.99 3.99 0 003.022-3.867 3.989 3.989 0 00-3.984-3.984h-8.438a3.989 3.989 0 00-3.984 3.984 3.991 3.991 0 003.022 3.867v2.985a23.53 23.53 0 00-11.54 6.348c-.72.72-1.383 1.474-1.99 2.258-.03-.002-.059-.004-.089-.004h-8.35a1.172 1.172 0 000 2.344h6.845a23.49 23.49 0 00-2.08 4.504H11.172a1.172 1.172 0 000 2.344h12.092a23.828 23.828 0 00-.582 4.504H17.5a1.172 1.172 0 000 2.344h5.22c.099 1.517.343 3.026.732 4.505h-7.593a1.172 1.172 0 000 2.343h8.34a23.533 23.533 0 005.391 8.336 23.716 23.716 0 0014.399 6.818A23.729 23.729 0 0059.23 59.98a1.172 1.172 0 00-1.279-1.964c-8.386 5.461-19.616 4.28-26.704-2.807-8.316-8.316-8.316-21.847 0-30.163 8.316-8.316 21.847-8.316 30.163 0 7.078 7.078 8.266 18.299 2.823 26.68a1.172 1.172 0 101.965 1.277 23.748 23.748 0 003.686-15.23zM40.452 10.187c0-.905.736-1.64 1.64-1.64h8.438c.904 0 1.64.735 1.64 1.64 0 .905-.736 1.64-1.64 1.64h-8.438c-.904 0-1.64-.735-1.64-1.64zm3.022 6.45v-2.465h5.674v2.46a23.875 23.875 0 00-5.674.005z"/><path d="M62.24 54.864a1.175 1.175 0 00-1.172 1.172 1.176 1.176 0 001.171 1.172 1.174 1.174 0 001.172-1.172c0-.308-.125-.61-.343-.829a1.183 1.183 0 00-.829-.343zM46.329 21.947c-10.024 0-18.18 8.155-18.18 18.179s8.156 18.18 18.18 18.18 18.18-8.156 18.18-18.18-8.156-18.18-18.18-18.18zm0 34.015c-8.732 0-15.836-7.104-15.836-15.836S37.597 24.29 46.33 24.29s15.836 7.104 15.836 15.836-7.104 15.836-15.836 15.836z"/><path d="M53.742 31.056l-5.804 5.804a3.62 3.62 0 00-1.609-.375 3.62 3.62 0 00-1.609.375l-2.597-2.597a1.172 1.172 0 00-1.658 1.657l2.598 2.598a3.618 3.618 0 00-.376 1.608 3.646 3.646 0 003.642 3.642 3.646 3.646 0 003.642-3.642 3.62 3.62 0 00-.376-1.608l5.634-5.634.17-.17a1.172 1.172 0 00-1.657-1.658zm-7.413 10.368a1.3 1.3 0 01-1.298-1.298 1.3 1.3 0 011.298-1.297 1.3 1.3 0 011.298 1.297 1.3 1.3 0 01-1.298 1.298zm12.53-2.455h-1.086a1.172 1.172 0 000 2.343h1.086a1.172 1.172 0 000-2.343zm-23.974-.029h-1.086a1.172 1.172 0 000 2.344h1.086a1.172 1.172 0 000-2.344zm11.458-9.086c.647 0 1.172-.525 1.172-1.172v-1.086a1.172 1.172 0 00-2.344 0v1.086c0 .647.525 1.172 1.172 1.172zm-.028 20.544c-.648 0-1.172.525-1.172 1.172v1.086a1.172 1.172 0 102.343 0V51.57c0-.647-.524-1.172-1.171-1.172zm-35.143-4.213c-.308 0-.61.126-.829.344a1.18 1.18 0 00-.343.828c0 .31.125.61.343.829.218.218.52.343.829.343.308 0 .61-.125.828-.343.218-.218.344-.52.344-.829 0-.308-.126-.61-.344-.828a1.18 1.18 0 00-.828-.344z"/></g><defs><clipPath id="clip0"><path fill="#fff" transform="translate(10 5)" d="M0 0h60v60H0z"/></clipPath><filter id="filter0_d" x="0" y="-1" width="80" height="80" filterUnits="userSpaceOnUse" color-interpolation-filters="sRGB"><feFlood flood-opacity="0" result="BackgroundImageFix"/><feColorMatrix in="SourceAlpha" values="0 0 0 0 0 0 0 0 0 0 0 0 0 0 0 0 0 0 127 0"/><feOffset dy="4"/><feGaussianBlur stdDeviation="5"/><feColorMatrix values="0 0 0 0 0.996078 0 0 0 0 0.831373 0 0 0 0 0.407843 0 0 0 0.1 0"/><feBlend in2="BackgroundImageFix" result="effect1_dropShadow"/><feBlend in="SourceGraphic" in2="effect1_dropShadow" result="shape"/></filter></defs></svg>