<svg width="70" height="70" fill="none" xmlns="http://www.w3.org/2000/svg"><g clip-path="url(#clip0)" filter="url(#filter0_d)" fill="#8764DA"><path d="M55.526 46.08l-2.018-.7a4.874 4.874 0 001.857-3.828v-1.479a4.887 4.887 0 00-4.882-4.882 4.887 4.887 0 00-4.882 4.882v1.48c0 1.55.727 2.932 1.857 3.827l-2.018.7a6.648 6.648 0 00-3.163 2.327h-5.452v-2.152a6.662 6.662 0 00-4.474-6.289l-2.019-.7a4.874 4.874 0 001.857-3.828v-1.48a4.887 4.887 0 00-4.881-4.88 4.887 4.887 0 00-4.882 4.88v1.48c0 1.55.727 2.932 1.857 3.827l-2.019.701a6.661 6.661 0 00-4.473 6.289v2.152H10.74a.74.74 0 00-.74.74v6.114c0 .408.331.74.74.74h30.769a.765.765 0 00.098-.008.768.768 0 00.1.007H59.26a.74.74 0 00.74-.74v-2.89a6.662 6.662 0 00-4.474-6.289zm-8.445-6.007a3.406 3.406 0 013.402-3.402 3.406 3.406 0 013.402 3.402v1.48a3.406 3.406 0 01-3.402 3.402 3.406 3.406 0 01-3.402-3.403v-1.479zm-23.176-6.114a3.406 3.406 0 013.403-3.403 3.406 3.406 0 013.402 3.403v1.48a3.406 3.406 0 01-3.402 3.401 3.406 3.406 0 01-3.403-3.402v-1.48zm4.954 6.36l.72.25-2.271 3.94-2.27-3.94.718-.25h3.104zm-9.589 5.936a5.182 5.182 0 013.48-4.892l.865-.3 3.052 5.297a.74.74 0 001.281 0l3.053-5.297.865.3a5.181 5.181 0 013.479 4.892v2.152H19.27v-2.152zm-7.79 3.63h29.968a6.632 6.632 0 00-.481 2.484v2.152H11.479v-4.635zm47.04 4.636H42.447v-2.152a5.182 5.182 0 013.479-4.891l3.006-1.044h3.104l3.006 1.044a5.181 5.181 0 013.48 4.89v2.153z"/><path d="M55.316 11.325h-7.514a.74.74 0 000 1.48h7.514a3.209 3.209 0 013.205 3.205v10.256a3.209 3.209 0 01-3.205 3.206H45.158a.74.74 0 00-.74.74v3.145l-3.668-3.669a.74.74 0 00-.523-.216H34.21a3.21 3.21 0 01-3.205-3.206V16.01a3.209 3.209 0 013.205-3.205h10.133a.74.74 0 100-1.48h-3.87v-.64A4.69 4.69 0 0035.788 6H14.684A4.69 4.69 0 0010 10.684v1.636a.74.74 0 101.48 0v-1.636a3.209 3.209 0 013.204-3.205H35.79a3.209 3.209 0 013.205 3.205v.641h-4.783a4.69 4.69 0 00-4.684 4.685v8.136h-7.742a.74.74 0 00-.74.74v3.145l-3.668-3.669a.74.74 0 00-.523-.216h-2.17a3.209 3.209 0 01-3.205-3.205v-5.182a.74.74 0 10-1.479 0v5.182a4.69 4.69 0 004.684 4.684h1.864l4.714 4.715a.738.738 0 00.806.16.74.74 0 00.457-.683v-4.192h7.002v.641a4.69 4.69 0 004.684 4.684h5.71l4.714 4.715a.74.74 0 001.262-.523V30.95h9.419A4.69 4.69 0 0060 26.266V16.01a4.69 4.69 0 00-4.684-4.685z"/></g><defs><clipPath id="clip0"><path fill="#fff" transform="translate(10 6)" d="M0 0h50v50H0z"/></clipPath><filter id="filter0_d" x="0" y="0" width="70" height="70" filterUnits="userSpaceOnUse" color-interpolation-filters="sRGB"><feFlood flood-opacity="0" result="BackgroundImageFix"/><feColorMatrix in="SourceAlpha" values="0 0 0 0 0 0 0 0 0 0 0 0 0 0 0 0 0 0 127 0"/><feOffset dy="4"/><feGaussianBlur stdDeviation="5"/><feColorMatrix values="0 0 0 0 0.529412 0 0 0 0 0.392157 0 0 0 0 0.854902 0 0 0 0.1 0"/><feBlend in2="BackgroundImageFix" result="effect1_dropShadow"/><feBlend in="SourceGraphic" in2="effect1_dropShadow" result="shape"/></filter></defs></svg>