<svg width="70" height="70" fill="none" xmlns="http://www.w3.org/2000/svg"><g clip-path="url(#clip0)" filter="url(#filter0_d)" fill="#8764DA"><path d="M35.26 20.668h7.732c.673 0 1.22-.548 1.22-1.221v-7.765c0-.673-.547-1.22-1.22-1.22H35.26c-.673 0-1.22.547-1.22 1.22v1.837a.732.732 0 101.464 0v-1.593h7.244v7.277h-7.244v-2.16a.732.732 0 10-1.464 0v2.404c0 .673.547 1.22 1.22 1.22zm-13.64-1.184h9.978a.732.732 0 100-1.465H21.62a.732.732 0 100 1.465zm16.697 5.459a.732.732 0 00-.733-.732H27.516a.732.732 0 100 1.465h10.068a.732.732 0 00.733-.733zM21.62 16.297h9.978a.732.732 0 100-1.465H21.62a.732.732 0 100 1.465zm0-3.187h9.978a.732.732 0 100-1.464H21.62a.732.732 0 100 1.464zm0 20.67h15.025a.732.732 0 100-1.465H21.62a.732.732 0 100 1.465zm0-4.097h11.882a.732.732 0 100-1.465H21.62a.732.732 0 100 1.465zm21.905-1.465h-6.848a.732.732 0 100 1.465h6.848a.732.732 0 100-1.465z"/><path d="M59.148 51.306a.732.732 0 00-.027-.026l-4.508-4.01a9.558 9.558 0 001.173-4.267.733.733 0 00-1.464-.052c-.11 4.315-3.765 7.868-8.089 7.825-4.462 0-8.093-3.643-8.093-8.12-.068-4.39 3.71-8.184 8.093-8.122a8.114 8.114 0 017.626 5.391.732.732 0 101.38-.49 9.588 9.588 0 00-7.851-6.295V7.22c0-.672-.548-1.22-1.221-1.22H18.933c-.673 0-1.22.548-1.22 1.22v2.65h-2.635c-.673 0-1.22.548-1.22 1.22v2.65h-2.635c-.674 0-1.221.547-1.221 1.22V51.5c0 .673.547 1.22 1.22 1.22h23.323c.673 0 1.22-.547 1.22-1.22v-2.65h3.18a9.53 9.53 0 007.289 3.392 9.497 9.497 0 004.528-1.141l4.542 4.067c1.08 1.07 2.83 1.13 3.913.06 1.084-1.036 1.019-2.896-.069-3.921zM19.177 7.465h26.746v25.61a9.572 9.572 0 00-7.633 4.248h-2.974a.732.732 0 100 1.465h2.169a9.588 9.588 0 00-.771 4.727h-10.19a5.277 5.277 0 001.633-3.82v-.907h3.985a.732.732 0 100-1.465h-4.717a.732.732 0 00-.733.733v1.639c0 2.106-1.706 3.82-3.802 3.82h-3.713V7.465zm-3.855 39.92V37.373a.732.732 0 10-1.465 0v10.256c0 .673.548 1.22 1.22 1.22h19.224v2.406H11.466v-36.05h2.39v19.072a.732.732 0 101.465 0V11.335h2.39v32.912c0 .405.328.733.733.733H36.96c.212.852.538 1.66.962 2.405h-22.6zm42.864 6.802c-.507.505-1.367.453-1.89-.098l-4.26-3.815a9.703 9.703 0 001.768-1.764l4.328 3.851c.499.48.557 1.34.054 1.826z"/><path d="M46.234 36.395c-3.38-.048-6.295 2.877-6.244 6.26 0 3.452 2.801 6.26 6.244 6.26 3.442 0 6.243-2.808 6.243-6.26s-2.8-6.26-6.243-6.26zm0 11.056c-2.635 0-4.779-2.151-4.779-4.796-.04-2.59 2.191-4.832 4.779-4.795 2.634 0 4.778 2.151 4.778 4.795 0 2.645-2.144 4.796-4.778 4.796z"/></g><defs><clipPath id="clip0"><path fill="#fff" transform="translate(10 6)" d="M0 0h50v50H0z"/></clipPath><filter id="filter0_d" x="0" y="0" width="70" height="70" filterUnits="userSpaceOnUse" color-interpolation-filters="sRGB"><feFlood flood-opacity="0" result="BackgroundImageFix"/><feColorMatrix in="SourceAlpha" values="0 0 0 0 0 0 0 0 0 0 0 0 0 0 0 0 0 0 127 0"/><feOffset dy="4"/><feGaussianBlur stdDeviation="5"/><feColorMatrix values="0 0 0 0 0.529412 0 0 0 0 0.392157 0 0 0 0 0.854902 0 0 0 0.1 0"/><feBlend in2="BackgroundImageFix" result="effect1_dropShadow"/><feBlend in="SourceGraphic" in2="effect1_dropShadow" result="shape"/></filter></defs></svg>