<svg width="74" height="80" fill="none" xmlns="http://www.w3.org/2000/svg"><g clip-path="url(#clip0)" filter="url(#filter0_d)" fill="#FED468"><path d="M11.526 15.702a.878.878 0 00.878-.879v-3.258a3.81 3.81 0 013.803-3.808h20.037c.197 0 .39.024.578.066v11.302a4.053 4.053 0 004.043 4.053h11.266c.041.187.065.38.065.575v4.798a.878.878 0 101.757 0v-4.798a4.366 4.366 0 00-1.283-3.102L39.351 7.29A4.36 4.36 0 0036.244 6H16.207a5.568 5.568 0 00-5.56 5.565v3.258c0 .486.394.879.879.879zm39.432 5.72H40.865a2.294 2.294 0 01-2.286-2.297V9.004l12.379 12.418zm-29.574 37.06h-5.177a3.81 3.81 0 01-3.803-3.807V18.922a.878.878 0 10-1.756 0v35.753a5.568 5.568 0 005.56 5.564h5.176a.878.878 0 100-1.757z"/><path d="M18.245 24.45h14.477a.878.878 0 100-1.757H18.245a.878.878 0 100 1.757zm0 19.33a.878.878 0 100 1.757h14.477a.878.878 0 100-1.757H18.245zm26.86-13.18a.878.878 0 00-.878-.878H18.011a.878.878 0 100 1.757h26.216a.878.878 0 00.879-.878zm-5.851 7.03a.878.878 0 00-.879-.879H18.011a.878.878 0 100 1.757h20.364a.878.878 0 00.879-.878zm24.089 23.459c-.058-.807-.428-1.995-1.864-3.075l-7.58-5.982 1.716-1.713c1.143.538 2.5.142 3.41-.77 1.202-1.208 1.344-3.031.315-4.066l-5.388-5.407V32.65a.878.878 0 10-1.756 0v5.663L50.45 36.56c-1.109-1.117-2.984-.803-4.06.314-.992.995-1.261 2.41-.748 3.455l-7.875 7.858c-1.043-.503-2.447-.23-3.437.758-1.114 1.075-1.428 2.952-.314 4.06l5.486 5.476H25.483a.878.878 0 100 1.757h15.779l1.67 1.667c1.148 1.103 2.937.805 4.063-.316.917-.917 1.31-2.284.761-3.428l1.668-1.664 5.982 7.593c2.149 2.607 4.336 2.345 6.482.41 1.023-1.024 1.54-2.236 1.455-3.412zM47.635 38.114c.454-.417 1.059-.713 1.57-.314l8.89 8.923c.335.337.19 1.073-.308 1.579-.467.443-1.159.755-1.647.251l-3.293-3.305a.878.878 0 10-1.245 1.24l2.675 2.684c-2.308 2.3-5.364 5.353-7.671 7.655l-7.504-7.49 7.692-7.675 1.913 1.92a.879.879 0 001.244-1.24l-2.533-2.543c-.461-.363-.328-1.12.217-1.685zm-1.881 22.233c-.506.504-1.245.65-1.582.315l-8.915-8.9c-.398-.512-.103-1.117.315-1.573.555-.538 1.309-.676 1.666-.231l8.83 8.815c.399.512.103 1.119-.314 1.574zm14.891 2.912c-1.32 1.315-2.745 1.281-3.852-.247l-6.117-7.764 1.97-1.967L60.4 59.4c1.527 1.109 1.563 2.538.246 3.859z"/></g><defs><clipPath id="clip0"><path fill="#fff" transform="translate(7 6)" d="M0 0h60v60H0z"/></clipPath><filter id="filter0_d" x="-3" y="0" width="80" height="80" filterUnits="userSpaceOnUse" color-interpolation-filters="sRGB"><feFlood flood-opacity="0" result="BackgroundImageFix"/><feColorMatrix in="SourceAlpha" values="0 0 0 0 0 0 0 0 0 0 0 0 0 0 0 0 0 0 127 0"/><feOffset dy="4"/><feGaussianBlur stdDeviation="5"/><feColorMatrix values="0 0 0 0 0.996078 0 0 0 0 0.831373 0 0 0 0 0.407843 0 0 0 0.1 0"/><feBlend in2="BackgroundImageFix" result="effect1_dropShadow"/><feBlend in="SourceGraphic" in2="effect1_dropShadow" result="shape"/></filter></defs></svg>