<svg width="64" height="70" fill="none" xmlns="http://www.w3.org/2000/svg"><g filter="url(#filter0_d)" fill="#8764DA"><path d="M50.674 12.627h-4.216V8.41A2.417 2.417 0 0044.048 6H13.325a2.417 2.417 0 00-2.41 2.41v38.554a2.417 2.417 0 002.41 2.41h4.217v4.216a2.416 2.416 0 002.41 2.41h20.481c1.325 0 3.2-.743 4.164-1.651l6.731-6.336c.966-.908 1.755-2.736 1.755-4.061l.001-28.916a2.417 2.417 0 00-2.41-2.41zm-33.132 2.41v32.53h-4.217a.61.61 0 01-.602-.603V8.41a.61.61 0 01.602-.603H44.05a.61.61 0 01.602.603v4.217h-24.7a2.416 2.416 0 00-2.41 2.41zm32.548 31.66l-6.732 6.335c-.138.13-.317.257-.515.378v-5.543c0-.413.166-.786.442-1.063.277-.275.65-.443 1.064-.443h6.027a2.68 2.68 0 01-.286.336zm1.186-2.745c0 .179-.033.386-.082.602h-6.846a3.32 3.32 0 00-3.313 3.313v6.253a3.147 3.147 0 01-.602.073H19.95a.61.61 0 01-.602-.603V15.036a.61.61 0 01.602-.602h30.723a.61.61 0 01.603.602l-.001 28.916z"/><path d="M44.049 21.06h-17.47a.903.903 0 100 1.807h17.47a.904.904 0 100-1.807zm0 12.048h-17.47a.903.903 0 100 1.808h17.47a.904.904 0 100-1.808zm-7.832 6.025H26.58a.903.903 0 100 1.807h9.638a.903.903 0 000-1.807zm7.832-12.049h-17.47a.903.903 0 100 1.808h17.47a.904.904 0 100-1.808z"/></g><defs><filter id="filter0_d" x="-3" y="0" width="70" height="70" filterUnits="userSpaceOnUse" color-interpolation-filters="sRGB"><feFlood flood-opacity="0" result="BackgroundImageFix"/><feColorMatrix in="SourceAlpha" values="0 0 0 0 0 0 0 0 0 0 0 0 0 0 0 0 0 0 127 0"/><feOffset dy="4"/><feGaussianBlur stdDeviation="5"/><feColorMatrix values="0 0 0 0 0.529412 0 0 0 0 0.392157 0 0 0 0 0.854902 0 0 0 0.1 0"/><feBlend in2="BackgroundImageFix" result="effect1_dropShadow"/><feBlend in="SourceGraphic" in2="effect1_dropShadow" result="shape"/></filter></defs></svg>