<svg width="98" height="60" fill="none" xmlns="http://www.w3.org/2000/svg"><path opacity=".1" d="M.76 19.92v19.2c0 12.32 8 20.08 21.92 20.08 13.84 0 21.76-7.76 21.76-20.08v-19.2C44.44 7.76 36.52 0 22.68 0 8.76 0 .76 7.76.76 19.92zm30.72-.16v19.6c0 5.12-3.28 7.92-8.8 7.92-5.68 0-8.96-2.8-8.96-7.92v-19.6c0-5.12 3.28-7.84 8.96-7.84 5.52 0 8.8 2.72 8.8 7.84zM92.252 1.2h-28c-3.6 0-4.88 1.12-5.2 4.64l-2.4 23.36c-.24 2.56.56 3.76 3.36 3.76h16.72c4.4 0 7.52 2.4 7.52 6.8 0 5.04-3.12 7.52-7.44 7.52-5.68 0-8.32-2-9.76-5.68-.96-2.4-1.92-2.8-4.16-2l-6.16 2.24c-2.24.8-2.8 1.84-2 4.16 3.2 8.64 10 13.2 22.4 13.2 13.28 0 20.72-8.72 20.72-19.2 0-10.24-6.24-18.56-20.08-18.56h-7.36l.8-8.4h21.04c2.48 0 3.28-.8 3.28-3.28V4.48c0-2.48-.8-3.28-3.28-3.28z" fill="#fff"/></svg>