<svg width="103" height="60" fill="none" xmlns="http://www.w3.org/2000/svg"><path opacity=".1" d="M.76 19.92v19.2c0 12.32 8 20.08 21.92 20.08 13.84 0 21.76-7.76 21.76-20.08v-19.2C44.44 7.76 36.52 0 22.68 0 8.76 0 .76 7.76.76 19.92zm30.72-.16v19.6c0 5.12-3.28 7.92-8.8 7.92-5.68 0-8.96-2.8-8.96-7.92v-19.6c0-5.12 3.28-7.84 8.96-7.84 5.52 0 8.8 2.72 8.8 7.84zm67.252 15.28h-4.48V4.48c0-2.48-.8-3.28-3.28-3.28h-5.92c-2.32 0-3.2.48-4.72 2.32l-25.28 31.04c-1.2 1.36-1.36 2-1.36 4.24v4c0 2.4.8 3.28 3.28 3.28h25.12v8.64c0 2.48.8 3.28 3.28 3.28h5.6c2.48 0 3.28-.8 3.28-3.28v-8.64h4.48c2.48 0 3.28-.88 3.28-3.28v-4.48c0-2.4-.8-3.28-3.28-3.28zm-16.64-16.88v16.88h-13.84l13.84-16.88z" fill="#fff"/></svg>