<svg width="70" height="80" fill="none" xmlns="http://www.w3.org/2000/svg"><g filter="url(#filter0_d)" fill="#FED468"><path d="M53.787 33.5v-.001c-.173-.635-.587-1.148-1.134-1.407-6.605-3.028-6.771-3.462-8.05-3.462-.497 0-.98.11-1.439.327l-6.61 3.135c-.548.259-.962.772-1.135 1.407-.214.79-.574 2.42-.574 4.464 0 5.485 2.496 10.54 7.76 14.328 1.22.877 2.775.878 3.995 0 5.277-3.797 7.761-8.856 7.761-14.328 0-2.044-.36-3.674-.574-4.464zm-8.22 17.354c-.601.432-1.325.434-1.928 0-4.794-3.45-7.024-7.997-7.024-12.891 0-1.839.32-3.295.512-3.998.043-.158.126-.247.184-.274 6.915-3.224 6.673-3.291 7.292-3.291.615 0 .384.07 7.292 3.29.058.028.14.116.184.274.191.704.513 2.16.513 4 0 4.884-2.222 9.433-7.025 12.89z"/><path d="M55.293 6H24.501a4.212 4.212 0 00-4.207 4.207v40.184h-5.077A4.612 4.612 0 0010.61 55v5.303A5.704 5.704 0 0016.307 66h36.77a6.32 6.32 0 006.313-6.314V10.097A4.102 4.102 0 0055.293 6zm-37.94 58.106c-2.644.654-4.973-1.313-4.973-3.804V55a2.84 2.84 0 012.837-2.838h5.078v.031l.004 8.11a3.935 3.935 0 01-2.947 3.804zm40.267-4.42a4.549 4.549 0 01-4.543 4.544h-32.58c1.908-2.003 1.543-4.264 1.572-5.417v-7.537a.892.892 0 00-.005-.093V10.207A2.44 2.44 0 0124.5 7.77h30.792a2.33 2.33 0 012.327 2.327v49.59z"/><path d="M49.814 36.463a.885.885 0 00-1.244.133c-5.928 7.314-5.54 6.939-5.655 6.947-.114.007.003.029-2.358-2.181a.885.885 0 00-1.218 1.283l2.26 2.146a1.903 1.903 0 002.786-.185l5.562-6.899a.885.885 0 00-.133-1.244zM48.23 12.762H25.694a.885.885 0 100 1.77H48.23a.885.885 0 000-1.77zm5.247 0H51.77a.885.885 0 000 1.77h1.706a.885.885 0 100-1.77zm-.001 44.578H32.474a.885.885 0 100 1.77h21.002a.885.885 0 100-1.77zm-24.542 0h-3.24a.885.885 0 100 1.77h3.24a.885.885 0 100-1.77zm24.542-38.207H25.694a.885.885 0 100 1.77h27.782a.885.885 0 000-1.77zm0 6.371H37.312a.885.885 0 000 1.77h16.164a.885.885 0 100-1.77zm-19.704 0h-8.078a.885.885 0 100 1.77h8.078a.885.885 0 100-1.77zm-1.542 6.371h-6.536a.885.885 0 100 1.77h6.536a.885.885 0 000-1.77zm0 6.371h-6.536a.885.885 0 100 1.77h6.536a.885.885 0 000-1.77zm1.534 6.371h-8.07a.885.885 0 100 1.77h8.07a.885.885 0 100-1.77zm2.861 6.372H25.694a.885.885 0 100 1.77h10.93a.885.885 0 000-1.77z"/></g><defs><filter id="filter0_d" x="-5" y="0" width="80" height="80" filterUnits="userSpaceOnUse" color-interpolation-filters="sRGB"><feFlood flood-opacity="0" result="BackgroundImageFix"/><feColorMatrix in="SourceAlpha" values="0 0 0 0 0 0 0 0 0 0 0 0 0 0 0 0 0 0 127 0"/><feOffset dy="4"/><feGaussianBlur stdDeviation="5"/><feColorMatrix values="0 0 0 0 0.996078 0 0 0 0 0.831373 0 0 0 0 0.407843 0 0 0 0.1 0"/><feBlend in2="BackgroundImageFix" result="effect1_dropShadow"/><feBlend in="SourceGraphic" in2="effect1_dropShadow" result="shape"/></filter></defs></svg>