<svg width="68" height="78" fill="none" xmlns="http://www.w3.org/2000/svg"><g filter="url(#filter0_d)" fill="#8764DA"><path d="M52.16 32.583v-.001c-.167-.614-.566-1.11-1.095-1.36-6.385-2.927-6.546-3.347-7.782-3.347-.48 0-.948.107-1.39.317l-6.391 3.03c-.53.25-.93.746-1.097 1.36a16.858 16.858 0 00-.555 4.315c0 5.302 2.413 10.188 7.502 13.85 1.178.849 2.682.85 3.862 0 5.1-3.67 7.502-8.56 7.502-13.85 0-1.975-.348-3.55-.555-4.314zm-7.945 16.776c-.581.418-1.281.42-1.863 0-4.635-3.336-6.791-7.73-6.791-12.462 0-1.777.31-3.185.495-3.865.042-.152.122-.238.179-.264 6.683-3.116 6.45-3.182 7.048-3.182.595 0 .371.069 7.049 3.182.056.026.136.111.178.264.185.68.495 2.088.495 3.866 0 4.722-2.148 9.119-6.79 12.461z"/><path d="M53.617 6H23.85a4.071 4.071 0 00-4.067 4.067v38.845h-4.908a4.459 4.459 0 00-4.453 4.453v5.127A5.514 5.514 0 0015.93 64h35.544a6.11 6.11 0 006.103-6.103V9.96A3.965 3.965 0 0053.617 6zM16.94 62.169c-2.555.633-4.806-1.27-4.806-3.677v-5.127a2.746 2.746 0 012.742-2.742h4.909v.03l.004 7.839a3.803 3.803 0 01-2.849 3.677zm38.926-4.272a4.397 4.397 0 01-4.392 4.392H19.98c1.844-1.937 1.492-4.122 1.52-5.236v-7.286c0-.03-.002-.06-.005-.09v-39.61c0-1.3 1.057-2.356 2.356-2.356h29.766c1.24 0 2.25 1.009 2.25 2.25v47.936z"/><path d="M48.32 35.447a.855.855 0 00-1.203.13c-5.73 7.07-5.354 6.707-5.466 6.715-.11.007.002.027-2.28-2.109a.855.855 0 00-1.177 1.24l2.184 2.075a1.84 1.84 0 002.693-.179l5.378-6.669a.856.856 0 00-.129-1.203zm-1.531-22.911H25.004a.855.855 0 100 1.71h21.785a.855.855 0 000-1.71zm5.071 0h-1.649a.855.855 0 000 1.71h1.65a.855.855 0 100-1.71zm0 43.094H31.558a.855.855 0 100 1.71H51.86a.855.855 0 100-1.71zm-23.723 0h-3.133a.855.855 0 100 1.71h3.133a.855.855 0 100-1.71zM51.86 18.695H25.004a.855.855 0 100 1.71H51.86a.855.855 0 100-1.71zm0 6.159H36.236a.855.855 0 100 1.71H51.86a.855.855 0 100-1.71zm-19.047 0h-7.809a.855.855 0 100 1.71h7.809a.855.855 0 100-1.71zm-1.491 6.159h-6.318a.855.855 0 100 1.71h6.318a.855.855 0 000-1.71zm0 6.158h-6.318a.855.855 0 100 1.711h6.318a.855.855 0 000-1.71zm1.482 6.159h-7.8a.855.855 0 100 1.71h7.8a.855.855 0 100-1.71zm2.766 6.16H25.004a.855.855 0 100 1.71H35.57a.855.855 0 000-1.71z"/></g><defs><filter id="filter0_d" x="-5" y="0" width="78" height="78" filterUnits="userSpaceOnUse" color-interpolation-filters="sRGB"><feFlood flood-opacity="0" result="BackgroundImageFix"/><feColorMatrix in="SourceAlpha" values="0 0 0 0 0 0 0 0 0 0 0 0 0 0 0 0 0 0 127 0"/><feOffset dy="4"/><feGaussianBlur stdDeviation="5"/><feColorMatrix values="0 0 0 0 0.529412 0 0 0 0 0.392157 0 0 0 0 0.854902 0 0 0 0.1 0"/><feBlend in2="BackgroundImageFix" result="effect1_dropShadow"/><feBlend in="SourceGraphic" in2="effect1_dropShadow" result="shape"/></filter></defs></svg>