<svg width="16" height="16" fill="none" xmlns="http://www.w3.org/2000/svg"><g clip-path="url(#clip0)"><path d="M14.716 10.502c-.98 0-1.942-.153-2.853-.454-.447-.153-.996-.013-1.268.267l-1.8 1.358C6.71 10.56 5.425 9.275 4.326 7.204l1.319-1.752c.342-.342.465-.842.318-1.31a9.098 9.098 0 01-.456-2.858A1.287 1.287 0 004.222 0H1.283C.575 0 0 .576 0 1.284 0 9.398 6.6 16 14.716 16c.708 0 1.284-.576 1.284-1.284v-2.93c0-.708-.576-1.284-1.284-1.284z" fill="#FED468"/></g><defs><clipPath id="clip0"><path fill="#fff" d="M0 0h16v16H0z"/></clipPath></defs></svg>