<svg width="80" height="80" fill="none" xmlns="http://www.w3.org/2000/svg"><g filter="url(#filter0_d)" fill="#FED468"><path d="M60.81 29.85V12.482a6.46 6.46 0 00-2.338-4.984 6.463 6.463 0 00-5.398-1.371C52.976 6.15 43.216 8.58 40 8.58c-3.214 0-12.975-2.43-13.073-2.454a6.462 6.462 0 00-5.398 1.37 6.462 6.462 0 00-2.34 4.985v17.37c-5.984 1.872-9.141 4.42-9.141 7.394 0 2.984 3.2 5.554 9.254 7.432 5.546 1.72 12.896 2.667 20.698 2.667s15.153-.947 20.698-2.667c6.055-1.878 9.255-4.448 9.255-7.432 0-2.974-3.158-5.522-9.143-7.394zm-39.276-5.942c5.103 1.219 11.36 1.884 17.822 1.884 3.918 0 7.722-.237 11.306-.705a1.172 1.172 0 10-.304-2.324c-3.483.455-7.185.686-11.002.686-6.52 0-12.804-.692-17.822-1.955v-9.013c0-1.234.544-2.393 1.493-3.182a4.123 4.123 0 013.368-.89c.77.192 10.176 2.515 13.605 2.515 3.43 0 12.834-2.323 13.605-2.515a4.123 4.123 0 013.369.89 4.124 4.124 0 011.493 3.182v12.896c-5.214 1.484-11.955 2.298-19.11 2.298-6.521 0-12.805-.692-17.823-1.954v-1.813zm0 6.812v-2.585c5.102 1.219 11.36 1.884 17.822 1.884 7.077 0 13.787-.78 19.11-2.21v1.819c-5.097 1.344-11.585 2.084-18.325 2.084-3.817 0-7.519-.231-11.001-.686a1.171 1.171 0 10-.304 2.324c3.583.468 7.387.705 11.306.705 6.676 0 13.133-.71 18.325-2.007v1.485c-5.214 1.484-11.956 2.297-19.11 2.297-6.52 0-12.805-.691-17.823-1.953V30.72zm38.47 11.718C54.677 44.091 47.574 45 40 45c-7.573 0-14.677-.91-20.003-2.562-4.691-1.455-7.605-3.444-7.605-5.193 0-1.66 2.566-3.498 6.798-4.93v2.466a1.169 1.169 0 00.863 1.13c3.341.912 7.272 1.568 11.484 1.932a88.936 88.936 0 003.859.247c1.306.056 2.629.084 3.96.084 7.767 0 15.093-.94 20.628-2.646.491-.152.826-.606.826-1.12v-2.093c4.233 1.432 6.799 3.27 6.799 4.93 0 1.749-2.914 3.738-7.605 5.193z"/><path d="M56.3 22.929a1.223 1.223 0 00-.175-.422 1.118 1.118 0 00-.324-.324 1.165 1.165 0 00-.421-.174 1.18 1.18 0 00-1.203.498 1.194 1.194 0 00-.197.65 1.148 1.148 0 00.198.65 1.118 1.118 0 00.323.325 1.254 1.254 0 00.422.173 1.152 1.152 0 00.878-.173 1.21 1.21 0 00.324-.325 1.163 1.163 0 00.175-.421 1.156 1.156 0 000-.457zm-30.805 8.262a1.207 1.207 0 00-.174-.422 1.187 1.187 0 00-.527-.43 1.155 1.155 0 00-.896 0 1.13 1.13 0 00-.634.634 1.185 1.185 0 00-.09.447 1.18 1.18 0 00.521.974 1.162 1.162 0 00.422.174 1.158 1.158 0 001.057-.32 1.181 1.181 0 00.322-1.057zm31.83 19.34h-34.65a5.103 5.103 0 00-5.097 5.098v5.039A5.338 5.338 0 0022.91 66h7.595c4.71 0 8.542-3.832 8.542-8.542v-4.583h1.907v4.583c0 4.71 3.831 8.542 8.541 8.542h7.596a5.338 5.338 0 005.332-5.332v-5.04a5.104 5.104 0 00-5.098-5.097zm-26.82 13.125H22.91a2.992 2.992 0 01-2.988-2.988v-5.04a2.757 2.757 0 012.754-2.753h14.027v4.583a6.205 6.205 0 01-6.198 6.198zm26.585 0h-7.595a6.205 6.205 0 01-6.198-6.198v-4.583h14.027a2.757 2.757 0 012.754 2.754v5.039a2.991 2.991 0 01-2.988 2.988z"/><path d="M27.072 54.071a1.172 1.172 0 00-1.657 0l-3.79 3.79a1.172 1.172 0 001.658 1.657l3.79-3.79a1.173 1.173 0 000-1.657zm23.718 0a1.172 1.172 0 00-1.658 0l-3.789 3.79A1.172 1.172 0 0047 59.517l3.79-3.79a1.173 1.173 0 000-1.657z"/></g><defs><filter id="filter0_d" x="0" y="0" width="80" height="80" filterUnits="userSpaceOnUse" color-interpolation-filters="sRGB"><feFlood flood-opacity="0" result="BackgroundImageFix"/><feColorMatrix in="SourceAlpha" values="0 0 0 0 0 0 0 0 0 0 0 0 0 0 0 0 0 0 127 0"/><feOffset dy="4"/><feGaussianBlur stdDeviation="5"/><feColorMatrix values="0 0 0 0 0.996078 0 0 0 0 0.831373 0 0 0 0 0.407843 0 0 0 0.1 0"/><feBlend in2="BackgroundImageFix" result="effect1_dropShadow"/><feBlend in="SourceGraphic" in2="effect1_dropShadow" result="shape"/></filter></defs></svg>