<svg width="80" height="80" fill="none" xmlns="http://www.w3.org/2000/svg"><g filter="url(#filter0_d)" fill="#FED468"><path d="M21.25 25.921h-3.516a1.172 1.172 0 000 2.344h3.516a1.172 1.172 0 000-2.344zm4.167 0a1.172 1.172 0 100 2.343 1.172 1.172 0 000-2.343zm36.849 0H58.75a1.172 1.172 0 000 2.344h3.516a1.172 1.172 0 000-2.344z"/><path d="M68.828 6H11.172C10.525 6 10 6.525 10 7.172v43.594c0 .647.525 1.172 1.172 1.172h29.552c.122.485.289.953.492 1.4l-5.69 5.69a1.172 1.172 0 00.396 1.917l3.088 1.228 1.228 3.088c.175.44.616.739 1.089.739.308 0 .607-.121.829-.343l6.692-6.692 6.692 6.692a1.169 1.169 0 001.917-.396l1.228-3.088 3.088-1.228a1.171 1.171 0 00.396-1.917l-5.69-5.69c.204-.447.37-.915.493-1.4h11.856c.647 0 1.172-.525 1.172-1.172V7.172C70 6.525 69.475 6 68.828 6zm-27.07 56.74L41 60.838a1.169 1.169 0 00-.656-.656l-1.902-.757 4.067-4.067a8.393 8.393 0 004.044 2.586l-4.796 4.796zm1.054-12.853a6.042 6.042 0 016.036-6.036 6.042 6.042 0 016.035 6.036 6.042 6.042 0 01-6.035 6.035 6.042 6.042 0 01-6.035-6.035zm16.44 9.538l-1.902.757c-.3.12-.537.356-.656.656l-.756 1.902-4.797-4.796a8.393 8.393 0 004.044-2.586l4.067 4.068zm8.404-9.831H57.22c-.155-4.485-3.85-8.086-8.371-8.086-4.522 0-8.217 3.6-8.372 8.086H12.344V8.344h55.312v41.25z"/><path d="M50.547 15.374H29.453a1.172 1.172 0 000 2.344h21.094a1.172 1.172 0 000-2.344zm-4.687 5.86h-7.032a1.172 1.172 0 000 2.344h7.031a1.172 1.172 0 000-2.344zm-21.094 0h-7.032a1.172 1.172 0 000 2.344h7.032a1.172 1.172 0 000-2.344zm9.374 0h-4.687a1.172 1.172 0 000 2.344h4.688a1.172 1.172 0 000-2.344zm28.126 0h-2.344a1.172 1.172 0 000 2.344h2.344a1.172 1.172 0 000-2.344zm-7.032 0h-4.687a1.172 1.172 0 000 2.344h4.687a1.172 1.172 0 000-2.344zm-4.817 4.687h-6.25a1.173 1.173 0 000 2.344h6.25c.645 0 1.172-.526 1.172-1.172 0-.645-.527-1.172-1.172-1.172zm-10.417 0a1.173 1.173 0 000 2.344c.646 0 1.172-.526 1.172-1.172 0-.645-.526-1.172-1.172-1.172zm14.583 0c-.646 0-1.172.526-1.172 1.172a1.173 1.173 0 101.172-1.172zm-18.75 0h-6.25c-.646 0-1.172.527-1.172 1.172 0 .646.526 1.172 1.172 1.172h6.25a1.173 1.173 0 000-2.344zm26.433 4.688H17.734a1.172 1.172 0 000 2.344h44.532a1.172 1.172 0 000-2.344zm-25.782 4.687h-7.03a1.172 1.172 0 000 2.344h7.03a1.172 1.172 0 000-2.344zm-11.718 0h-7.032a1.172 1.172 0 000 2.344h7.032a1.172 1.172 0 000-2.344zm11.718 4.688c-.645 0-1.172.526-1.172 1.172 0 .645.527 1.172 1.172 1.172.646 0 1.172-.527 1.172-1.172 0-.646-.526-1.172-1.172-1.172zm-4.687 0H17.734c-.645 0-1.172.526-1.172 1.172 0 .645.527 1.172 1.172 1.172h14.063c.646 0 1.172-.527 1.172-1.172 0-.646-.526-1.172-1.172-1.172zm17.051 6.386a3.52 3.52 0 00-3.516 3.517 3.52 3.52 0 003.516 3.515 3.52 3.52 0 003.515-3.516 3.52 3.52 0 00-3.515-3.515zm0 4.688a1.173 1.173 0 01-1.172-1.172 1.173 1.173 0 012.344 0c0 .647-.526 1.172-1.172 1.172z"/></g><defs><filter id="filter0_d" x="0" y="0" width="80" height="80" filterUnits="userSpaceOnUse" color-interpolation-filters="sRGB"><feFlood flood-opacity="0" result="BackgroundImageFix"/><feColorMatrix in="SourceAlpha" values="0 0 0 0 0 0 0 0 0 0 0 0 0 0 0 0 0 0 127 0"/><feOffset dy="4"/><feGaussianBlur stdDeviation="5"/><feColorMatrix values="0 0 0 0 0.996078 0 0 0 0 0.831373 0 0 0 0 0.407843 0 0 0 0.1 0"/><feBlend in2="BackgroundImageFix" result="effect1_dropShadow"/><feBlend in="SourceGraphic" in2="effect1_dropShadow" result="shape"/></filter></defs></svg>