<svg width="68" height="80" fill="none" xmlns="http://www.w3.org/2000/svg"><g filter="url(#filter0_d)" fill="#FED468"><path d="M34.131 10.688H34a1.172 1.172 0 000 2.343h.118a1.172 1.172 0 00.013-2.343z"/><path d="M54.156 28.734h-5.039v-7.617C49.117 12.781 42.336 6 34 6c-8.336 0-15.117 6.781-15.117 15.117v7.617h-5.04a3.52 3.52 0 00-3.515 3.516v30.234A3.52 3.52 0 0013.844 66h40.312a3.52 3.52 0 003.516-3.516V32.25a3.52 3.52 0 00-3.516-3.516zm1.172 33.75c0 .646-.526 1.172-1.172 1.172H13.844a1.173 1.173 0 01-1.172-1.172V32.25c0-.646.526-1.172 1.172-1.172h16.289a1.172 1.172 0 000-2.344h-4.219v-7.617a8.081 8.081 0 014.943-7.45 1.172 1.172 0 00-.914-2.158 10.421 10.421 0 00-6.373 9.608v7.617h-2.343v-7.617c0-7.043 5.73-12.773 12.773-12.773 7.043 0 12.773 5.73 12.773 12.773v7.617H44.43v-7.617c0-4.1-2.423-7.837-6.171-9.52a1.172 1.172 0 00-.96 2.138 8.107 8.107 0 014.787 7.382v7.617h-3.809a1.172 1.172 0 000 2.344h15.88c.645 0 1.171.526 1.171 1.172v30.234z"/><path d="M34.176 28.734h-.03a1.172 1.172 0 000 2.344h.03a1.172 1.172 0 000-2.344zm3.048 18.603a4.892 4.892 0 001.698-3.72A4.927 4.927 0 0034 38.695a4.927 4.927 0 00-4.922 4.922 4.95 4.95 0 001.774 3.782l-.776 7.345a1.172 1.172 0 001.165 1.295h5.601a1.172 1.172 0 001.166-1.295l-.784-7.407zm-1.858-1.534c-.38.238-.59.671-.543 1.117l.716 6.775h-2.996l.712-6.728a1.172 1.172 0 00-.568-1.131 2.559 2.559 0 01-1.265-2.219A2.581 2.581 0 0134 41.04a2.581 2.581 0 012.578 2.578c0 .893-.453 1.71-1.212 2.186z"/></g><defs><filter id="filter0_d" x="-6" y="0" width="80" height="80" filterUnits="userSpaceOnUse" color-interpolation-filters="sRGB"><feFlood flood-opacity="0" result="BackgroundImageFix"/><feColorMatrix in="SourceAlpha" values="0 0 0 0 0 0 0 0 0 0 0 0 0 0 0 0 0 0 127 0"/><feOffset dy="4"/><feGaussianBlur stdDeviation="5"/><feColorMatrix values="0 0 0 0 0.996078 0 0 0 0 0.831373 0 0 0 0 0.407843 0 0 0 0.1 0"/><feBlend in2="BackgroundImageFix" result="effect1_dropShadow"/><feBlend in="SourceGraphic" in2="effect1_dropShadow" result="shape"/></filter></defs></svg>