<svg width="83" height="60" fill="none" xmlns="http://www.w3.org/2000/svg"><path opacity=".1" d="M.76 19.92v19.2c0 12.32 8 20.08 21.92 20.08 13.84 0 21.76-7.76 21.76-20.08v-19.2C44.44 7.76 36.52 0 22.68 0 8.76 0 .76 7.76.76 19.92zm30.72-.16v19.6c0 5.12-3.28 7.92-8.8 7.92-5.68 0-8.96-2.8-8.96-7.92v-19.6c0-5.12 3.28-7.84 8.96-7.84 5.52 0 8.8 2.72 8.8 7.84zM78.732 1.2h-4.56c-2 0-2.88.24-4.64 1.28l-14.48 8.4c-2.16 1.28-2.72 2.32-1.6 4.4l2.8 5.04c1.12 2.16 2.48 2.72 4.96 1.28l7.76-4.4v37.52c0 2.48.88 3.28 3.28 3.28h6.48c2.4 0 3.28-.8 3.28-3.28V4.48c0-2.48-.88-3.28-3.28-3.28z" fill="#fff"/></svg>