<svg width="70" height="70" fill="none" xmlns="http://www.w3.org/2000/svg"><g filter="url(#filter0_d)" fill="#8764DA"><path d="M33.054 40.855a.98.98 0 00-1.381 0 .982.982 0 00-.286.69.98.98 0 00.286.69.984.984 0 00.69.287.983.983 0 00.69-.287.984.984 0 00.287-.69.983.983 0 00-.286-.69z"/><path d="M53.75 32.173a.977.977 0 00-.977.976v4.295H35.977v-2.41c0-3.714-2.793-6.785-6.388-7.23a5.077 5.077 0 001.138-3.207v-6.87a.977.977 0 00-.977-.977h-5.11a4.122 4.122 0 00-4.117 4.117v3.73c0 1.214.427 2.33 1.138 3.206-3.595.446-6.388 3.517-6.388 7.23v2.411h-3.32V13.983a.76.76 0 01.762-.757h20.3a.977.977 0 000-1.954h-20.3A2.716 2.716 0 0010 13.983v28.955a2.716 2.716 0 002.715 2.71h14.861v4.512a4.896 4.896 0 00-4.392 4.864c0 .539.437.976.976.976h16.406c.54 0 .977-.437.977-.977a4.896 4.896 0 00-4.392-4.863v-4.511h14.86a2.716 2.716 0 002.716-2.71V33.15a.977.977 0 00-.977-.976zM22.477 20.868c0-1.194.97-2.164 2.163-2.164h4.133v1.559c0 .775-.63 1.405-1.404 1.405h-4.892v-.8zm0 2.753h4.892c.501 0 .977-.111 1.404-.31v1.286a3.152 3.152 0 01-3.148 3.149 3.152 3.152 0 01-3.148-3.149v-.976zm4.288 6.078l-1.14 1.14-1.14-1.14h2.28zm-9.538 5.335a5.343 5.343 0 014.554-5.277l3.153 3.153a.973.973 0 001.381 0l3.154-3.153a5.343 5.343 0 014.554 5.277v2.41H17.227v-2.41zm22.196 19.012h-14.12a2.94 2.94 0 012.77-1.96h8.581a2.94 2.94 0 012.769 1.96zm-9.894-3.913v-4.486h5.668v4.486H29.53zm23.244-7.196a.76.76 0 01-.762.757H12.715a.76.76 0 01-.762-.757v-3.54h40.82v3.54zM54.44 28.78a.983.983 0 00-.69-.286.984.984 0 00-.69.286.985.985 0 00-.287.69.98.98 0 001.667.69.982.982 0 00.287-.69.983.983 0 00-.287-.69zm-.69-18.19h-7.324a.977.977 0 000 1.954h7.324a.977.977 0 100-1.953zm-10.638.287a.983.983 0 00-.69-.286.984.984 0 00-.69.286.984.984 0 00-.287.69c0 .257.105.51.286.69a.984.984 0 00.69.287.983.983 0 00.691-.286.984.984 0 00.286-.69.984.984 0 00-.286-.691zm10.638 4.011H42.422a.977.977 0 000 1.953H53.75a.977.977 0 100-1.953z"/><path d="M53.75 19.185H42.422a.977.977 0 100 1.953H53.75a.977.977 0 000-1.953z"/><path d="M55.117 6.001H41.055a4.888 4.888 0 00-4.883 4.883v10.449a4.89 4.89 0 004.33 4.852v2.537a.977.977 0 001.666.69l3.197-3.196h9.752A4.888 4.888 0 0060 21.333v-10.45a4.888 4.888 0 00-4.883-4.882zm2.93 15.332a2.933 2.933 0 01-2.93 2.93H44.961a.977.977 0 00-.69.286l-1.817 1.816v-1.126a.977.977 0 00-.976-.976h-.423a2.933 2.933 0 01-2.93-2.93v-10.45a2.933 2.933 0 012.93-2.929h14.062a2.933 2.933 0 012.93 2.93v10.449z"/></g><defs><filter id="filter0_d" x="0" y="0" width="70" height="70" filterUnits="userSpaceOnUse" color-interpolation-filters="sRGB"><feFlood flood-opacity="0" result="BackgroundImageFix"/><feColorMatrix in="SourceAlpha" values="0 0 0 0 0 0 0 0 0 0 0 0 0 0 0 0 0 0 127 0"/><feOffset dy="4"/><feGaussianBlur stdDeviation="5"/><feColorMatrix values="0 0 0 0 0.529412 0 0 0 0 0.392157 0 0 0 0 0.854902 0 0 0 0.1 0"/><feBlend in2="BackgroundImageFix" result="effect1_dropShadow"/><feBlend in="SourceGraphic" in2="effect1_dropShadow" result="shape"/></filter></defs></svg>