<svg width="101" height="60" fill="none" xmlns="http://www.w3.org/2000/svg"><path opacity=".1" d="M.76 19.92v19.2c0 12.32 8 20.08 21.92 20.08 13.84 0 21.76-7.76 21.76-20.08v-19.2C44.44 7.76 36.52 0 22.68 0 8.76 0 .76 7.76.76 19.92zm30.72-.16v19.6c0 5.12-3.28 7.92-8.8 7.92-5.68 0-8.96-2.8-8.96-7.92v-19.6c0-5.12 3.28-7.84 8.96-7.84 5.52 0 8.8 2.72 8.8 7.84zm37.332 3.12V21.2c0-6.24 3.2-9.28 9.44-9.28 4.96 0 7.84 1.68 9.36 5.12 1.04 2.32 1.92 2.96 4.16 2.08l5.76-2.16c2.32-.88 2.96-1.92 2-4.16-3.12-8.32-10-12.8-21.36-12.8-14.48 0-22.32 8-22.32 21.28v16.64c0 13.28 7.76 21.28 22.32 21.28 13.92 0 22.32-7.04 22.32-18.72 0-12.32-6.88-18.56-21.52-18.56-4.88 0-8.08.48-10.16.96zm0 15.68v-3.6c1.2-.48 4.08-1.28 9.36-1.28 6.88 0 9.36 2.32 9.36 6.88 0 4.48-3.04 6.88-9.36 6.88-6.32 0-9.36-3.04-9.36-8.88z" fill="#fff"/></svg>