<?xml version="1.0" encoding="UTF-8"?><!DOCTYPE svg PUBLIC "-//W3C//DTD SVG 1.1//EN" "http://www.w3.org/Graphics/SVG/1.1/DTD/svg11.dtd"><svg xmlns="http://www.w3.org/2000/svg" xmlns:xlink="http://www.w3.org/1999/xlink"><defs>
<clipPath id="clip0">
<rect width="16" height="16" fill="white" transform="translate(-0.000488281)"/>
</clipPath>

<clipPath id="clip0">
<rect width="16" height="16" fill="white"/>
</clipPath>
</defs><symbol id="icon-phone-yellow" viewBox="0 0 16 16">
<g clip-path="url(#clip0)">
<path d="M14.7157 10.5022C13.7361 10.5022 12.7743 10.349 11.8628 10.0478C11.4162 9.89542 10.8671 10.0352 10.5946 10.3151L8.79551 11.6732C6.70914 10.5595 5.42397 9.27475 4.32547 7.20404L5.64359 5.45188C5.98605 5.10988 6.10889 4.61029 5.96172 4.14154C5.65922 3.22529 5.50555 2.26392 5.50555 1.28392C5.5056 0.575958 4.92964 0 4.22172 0H1.28339C0.57547 0 -0.000488281 0.575958 -0.000488281 1.28388C-0.000488281 9.39846 6.60109 16 14.7157 16C15.4236 16 15.9996 15.424 15.9996 14.7161V11.786C15.9995 11.0781 15.4236 10.5022 14.7157 10.5022Z" fill="#FED468"/>
</g>

</symbol><symbol id="icon-phone" viewBox="0 0 16 16">
<g clip-path="url(#clip0)">
<path d="M14.7162 10.5022C13.7366 10.5022 12.7747 10.349 11.8633 10.0478C11.4167 9.89542 10.8676 10.0352 10.595 10.3151L8.796 11.6732C6.70963 10.5595 5.42446 9.27475 4.32596 7.20404L5.64408 5.45188C5.98654 5.10988 6.10938 4.61029 5.96221 4.14154C5.65971 3.22529 5.50604 2.26392 5.50604 1.28392C5.50608 0.575958 4.93013 0 4.22221 0H1.28387C0.575958 0 0 0.575958 0 1.28387C0 9.39846 6.60158 16 14.7162 16C15.4241 16 16 15.424 16 14.7161V11.786C16 11.0781 15.424 10.5022 14.7162 10.5022Z" fill="#8627E5"/>
</g>

</symbol></svg>