<svg width="410" height="94" fill="none" xmlns="http://www.w3.org/2000/svg"><path opacity=".04" d="M56.2.9h-12c-2.3 0-3.3.6-4.2 2L26.4 26.2c-4.3 7.3-5.6 10.7-9.6 20.8h-.7c3.2-10.6 3.7-13.8 3.7-24.7V5.2c0-3.1-1-4.2-4.2-4.2H4.3C1.1 1 0 2.1 0 5.2v62.6C0 70.9 1.1 72 4.3 72h12.1c2.2 0 3.3-.5 4.1-2l13.8-23.5c4.3-7.3 5.7-10.3 9.4-20.6h.8c-2.7 10.9-3.8 13.6-3.8 24.8v17c0 3.2 1.1 4.3 4.3 4.3h11.2c3.2 0 4.3-1.1 4.3-4.2V5.2C60.5 2 59.4.9 56.2.9zm15.912 39.6v10.9c0 13.7 7.2 22.1 23.7 22.1 12.801 0 20.201-5.1 23.801-13.8 1.3-3.1.3-4.6-2.6-5.5l-9.6-2.9c-3.1-1-4.3-.5-5.5 2.5-1.2 3-3 4.1-5.9 4.1-3.4 0-5.3-2-5.3-5.4v-13c0-3.4 1.8-5.4 5.3-5.4 2.9 0 4.7 1.1 5.9 4.1 1.2 3 2.5 3.7 5.5 2.7l9.3-3.1c2.9-1 3.7-2.4 2.7-5.4-2.7-7.8-10-13.9-22.5-13.9-17.1 0-24.8 8.5-24.8 22zM170.16 20h-39.6c-2.9 0-3.8 1-3.8 3.8v8.7c0 2.9.9 3.9 3.8 3.9h10.5v31.8c0 2.8.9 3.8 3.8 3.8h11c2.9 0 3.8-1 3.8-3.8V36.4h10.5c2.9 0 3.8-1 3.8-3.9v-8.7c0-2.8-.9-3.8-3.8-3.8zm11.614 20.4v11.2c0 13.6 8.6 21.9 24.8 21.9 16.4 0 24.8-8.3 24.8-21.9V40.4c0-13.6-8.4-21.9-24.8-21.9-16.2 0-24.8 8.3-24.8 21.9zm31.1-.5v12.2c0 3.5-2.1 5.3-6.3 5.3-4.1 0-6.2-1.8-6.2-5.3V39.9c0-3.5 2.1-5.4 6.2-5.4 4.2 0 6.3 1.9 6.3 5.4zm33.475-18c-3.4 1.4-4.2 2.5-4.2 5.8v62.4c0 2.9 1 3.8 3.9 3.8h10.9c2.9 0 3.9-.9 3.9-3.8V73c1.9.2 3.9.5 6 .5 15.4 0 23.3-7.9 23.3-22.6V40.1c0-13.6-7.2-21.6-22.9-21.6-10.3 0-16.6 1.7-20.9 3.4zm25.2 17.7v12.3c0 3.7-2 5.5-6.2 5.5-1.8 0-3.6-.3-4.5-.5V35.8c0-.3.1-.5.4-.6 1-.3 2.4-.5 4.6-.5 3.6 0 5.7 1.7 5.7 4.9zM315.834 20h-10.9c-2.9 0-3.9 1-3.9 3.8v44.4c0 2.8 1 3.8 3.9 3.8h10.9c2.1 0 3.2-.6 4.1-2.6l7.3-13.2c2.1-4.5 3.8-8.5 5.5-13.2h.6c-1.8 7.1-2.7 11-2.7 17.1v8.1c0 2.8.9 3.8 3.8 3.8h11c2.8 0 3.8-1 3.8-3.8V23.8c0-2.8-1-3.8-3.8-3.8h-11c-2 0-3.2.7-4 2.6l-7.7 14.2c-1.8 3.9-3.4 7.4-5.1 12.2h-.6c1.9-7.6 2.7-12.1 2.7-17.1v-8.1c0-2.8-1-3.8-3.9-3.8zm60.445 0h-10.9c-2.9 0-3.9 1-3.9 3.8v44.4c0 2.8 1 3.8 3.9 3.8h10.9c2.1 0 3.2-.6 4.1-2.6l7.3-13.2c2.1-4.5 3.8-8.5 5.5-13.2h.6c-1.8 7.1-2.7 11-2.7 17.1v8.1c0 2.8.9 3.8 3.8 3.8h11c2.8 0 3.8-1 3.8-3.8V23.8c0-2.8-1-3.8-3.8-3.8h-11c-2 0-3.2.7-4 2.6l-7.7 14.2c-1.8 3.9-3.4 7.4-5.1 12.2h-.6c1.9-7.6 2.7-12.1 2.7-17.1v-8.1c0-2.8-1-3.8-3.9-3.8z" fill="#fff"/></svg>