<svg width="66" height="70" fill="none" xmlns="http://www.w3.org/2000/svg"><g filter="url(#filter0_d)" fill="#8764DA"><path d="M52.14 7.465H39.49A5.108 5.108 0 0035.898 6a5.111 5.111 0 00-3.594 1.465H19.72a3.666 3.666 0 00-3.662 3.662v30.957a.732.732 0 001.465 0V11.127A2.2 2.2 0 0119.72 8.93h11.547a5.16 5.16 0 00-.116.262l-.498 1.203H19.719a.733.733 0 00-.733.732v33.154H10.93a.732.732 0 00-.733.733c0 2.827 2.3 5.127 5.127 5.127h.733v2.197A3.666 3.666 0 0019.719 56H52.14a3.666 3.666 0 003.662-3.662V11.127a3.666 3.666 0 00-3.662-3.662zM32.506 9.748a3.649 3.649 0 013.393-2.283 3.65 3.65 0 013.394 2.288l1.9 4.584a.73.73 0 00.676.452h1.484a2.2 2.2 0 012.071 1.465H26.436a2.201 2.201 0 012.072-1.465h1.42a.733.733 0 00.676-.452l1.901-4.59zm-12.054 2.111h9.594l-.607 1.465h-.93a3.666 3.666 0 00-3.662 3.662c0 .405.328.733.732.733h20.703a.732.732 0 00.733-.733 3.666 3.666 0 00-3.662-3.662h-.995l-.607-1.465h9.658v33.155a3.666 3.666 0 01-3.662 3.662 3.666 3.666 0 01-3.662-3.662.732.732 0 00-.732-.733h-22.9V11.86zm-8.715 33.887H42.67a5.119 5.119 0 001.49 2.93H15.324a3.669 3.669 0 01-3.588-2.93zm42.602 6.592a2.2 2.2 0 01-2.197 2.197H19.719a2.2 2.2 0 01-2.198-2.197V50.14h30.225c2.827 0 5.127-2.3 5.127-5.127V11.127a.732.732 0 00-.732-.732H41.144l-.496-1.198a5.253 5.253 0 00-.119-.267h11.612a2.2 2.2 0 012.197 2.197v41.21z"/><path d="M35.898 13.324a2.2 2.2 0 002.197-2.197 2.2 2.2 0 00-2.197-2.197 2.2 2.2 0 00-2.198 2.197 2.2 2.2 0 002.197 2.197zm0-2.93a.733.733 0 11-.002 1.467.733.733 0 01.002-1.466zm4.524 27.198H25.578a.732.732 0 100 1.465h14.844a.732.732 0 100-1.465zm5.859 2.93a.732.732 0 00.733-.733v-2.93a.732.732 0 00-.733-.732h-2.93a.732.732 0 00-.732.732v2.93c0 .405.328.733.733.733h2.93zm-2.197-2.93h1.465v1.465h-1.465v-1.465zm-3.662-7.324H25.578a.732.732 0 100 1.464h14.844a.732.732 0 100-1.464zm2.93 2.929h2.93a.732.732 0 00.732-.732v-2.93a.732.732 0 00-.733-.732h-2.93a.732.732 0 00-.732.732v2.93c0 .404.328.732.733.732zm.732-2.93h1.465v1.465h-1.465v-1.464zm-3.662-7.324H25.578a.732.732 0 100 1.465h14.844a.732.732 0 100-1.465zm2.93 2.93h2.93a.732.732 0 00.732-.732v-2.93a.732.732 0 00-.733-.732h-2.93a.732.732 0 00-.732.732v2.93c0 .404.328.732.733.732zm.732-2.93h1.465v1.465h-1.465v-1.465z"/></g><defs><filter id="filter0_d" x="-2" y="0" width="70" height="70" filterUnits="userSpaceOnUse" color-interpolation-filters="sRGB"><feFlood flood-opacity="0" result="BackgroundImageFix"/><feColorMatrix in="SourceAlpha" values="0 0 0 0 0 0 0 0 0 0 0 0 0 0 0 0 0 0 127 0"/><feOffset dy="4"/><feGaussianBlur stdDeviation="5"/><feColorMatrix values="0 0 0 0 0.529412 0 0 0 0 0.392157 0 0 0 0 0.854902 0 0 0 0.1 0"/><feBlend in2="BackgroundImageFix" result="effect1_dropShadow"/><feBlend in="SourceGraphic" in2="effect1_dropShadow" result="shape"/></filter></defs></svg>