<svg width="99" height="60" fill="none" xmlns="http://www.w3.org/2000/svg"><path opacity=".1" d="M.76 19.92v19.2c0 12.32 8 20.08 21.92 20.08 13.84 0 21.76-7.76 21.76-20.08v-19.2C44.44 7.76 36.52 0 22.68 0 8.76 0 .76 7.76.76 19.92zm30.72-.16v19.6c0 5.12-3.28 7.92-8.8 7.92-5.68 0-8.96-2.8-8.96-7.92v-19.6c0-5.12 3.28-7.84 8.96-7.84 5.52 0 8.8 2.72 8.8 7.84zm65.572-3.36c0-10.08-7.04-16.4-19.44-16.4-12.32 0-18.88 4.8-22.08 13.44-.8 2.24-.24 3.36 2 4.16l6 2.16c2.32.64 3.2.32 4.16-2.08 1.52-3.92 3.36-5.92 9.2-5.92 4.64 0 7.04 1.92 7.04 5.92s-3.04 5.84-7.04 5.84h-4.72c-2.48 0-3.28.8-3.28 3.28v4.96c0 2.4.8 3.2 3.28 3.2h6.32c4.48 0 6.72 1.92 6.72 6.24 0 3.92-2.48 6.24-8 6.24-6.16 0-8.4-2-9.92-5.92-.96-2.4-1.92-2.88-4.16-2.08l-6 2.16c-2.24.8-2.8 1.92-2 4.16 3.2 8.64 10.16 13.44 22.48 13.44 14.32 0 21.2-7.04 21.2-17.6 0-5.6-2.32-10.56-7.76-13.36 4-2.56 6-6.64 6-11.84z" fill="#fff"/></svg>