<svg width="98" height="60" fill="none" xmlns="http://www.w3.org/2000/svg"><path opacity=".1" d="M.76 19.92v19.2c0 12.32 8 20.08 21.92 20.08 13.84 0 21.76-7.76 21.76-20.08v-19.2C44.44 7.76 36.52 0 22.68 0 8.76 0 .76 7.76.76 19.92zm30.72-.16v19.6c0 5.12-3.28 7.92-8.8 7.92-5.68 0-8.96-2.8-8.96-7.92v-19.6c0-5.12 3.28-7.84 8.96-7.84 5.52 0 8.8 2.72 8.8 7.84zm24.372-6.32c-.88 2.24-.24 3.36 2 4.16l6.16 2.24c2.24.8 3.04.32 4.16-2.08 1.76-4 4.32-5.84 8.72-5.84s7.28 3.04 7.28 6.96c0 6.88-6.56 9.2-13.44 11.92-7.44 3.12-15.36 6.88-15.36 17.84v6.08c0 2.48.8 3.28 3.2 3.28h34.64c2.48 0 3.28-.8 3.28-3.28v-5.2c0-2.4-.8-3.28-3.28-3.28h-24.32v-.64c0-2.4 4.4-3.28 7.36-4.4 15.76-6.16 21.36-10.88 21.36-22.88 0-9.76-7.36-18.32-20.24-18.32-11.92 0-18.32 5.44-21.52 13.44z" fill="#fff"/></svg>